<svg width="257" height="239" viewBox="0 0 257 239" fill="none" xmlns="http://www.w3.org/2000/svg">
<g opacity="0.9">
<path d="M232.405 231.922C232.005 231.922 231.648 231.666 231.52 231.287C229.729 225.979 228.387 224.638 223.079 222.846C222.7 222.718 222.444 222.362 222.444 221.961C222.444 221.561 222.7 221.204 223.079 221.076C228.388 219.285 229.729 217.943 231.52 212.635C231.648 212.255 232.004 212 232.405 212C232.806 212 233.162 212.255 233.29 212.635C235.082 217.943 236.423 219.284 241.731 221.076C242.11 221.204 242.366 221.561 242.366 221.961C242.366 222.362 242.11 222.718 241.731 222.846C236.423 224.638 235.082 225.979 233.29 231.287C233.162 231.666 232.806 231.922 232.405 231.922Z" fill="url(#paint0_linear_1402_397)"/>
<path opacity="0.2" d="M240 81.8889C239.719 81.8889 239.468 81.7094 239.378 81.4428C238.119 77.7122 237.176 76.7698 233.446 75.5109C233.18 75.4206 233 75.1705 233 74.8889C233 74.6075 233.18 74.3572 233.446 74.2671C237.177 73.0082 238.119 72.0656 239.378 68.3352C239.468 68.0684 239.718 67.8889 240 67.8889C240.282 67.8889 240.531 68.0684 240.622 68.3352C241.881 72.0656 242.824 73.0079 246.554 74.2671C246.82 74.3572 247 74.6075 247 74.8889C247 75.1705 246.82 75.4206 246.554 75.5109C242.823 76.7701 241.881 77.7122 240.622 81.4428C240.531 81.7094 240.281 81.8889 240 81.8889Z" fill="url(#paint1_linear_1402_397)"/>
<path opacity="0.2" d="M90.4443 21C90.163 21 89.9123 20.8205 89.8223 20.5539C88.5634 16.8233 87.6207 15.8809 83.8904 14.622C83.6241 14.5317 83.4443 14.2816 83.4443 14C83.4443 13.7186 83.6241 13.4683 83.8904 13.3782C87.621 12.1193 88.5634 11.1767 89.8223 7.44635C89.9123 7.17953 90.1627 7 90.4443 7C90.726 7 90.9758 7.17953 91.0664 7.44635C92.3253 11.1767 93.2679 12.1191 96.9982 13.3782C97.2645 13.4683 97.4443 13.7186 97.4443 14C97.4443 14.2816 97.2645 14.5317 96.9982 14.622C93.2677 15.8812 92.3253 16.8233 91.0664 20.5539C90.9758 20.8205 90.7257 21 90.4443 21Z" fill="url(#paint2_linear_1402_397)"/>
<path opacity="0.2" d="M250 190.889C249.719 190.889 249.468 190.709 249.378 190.443C248.119 186.712 247.176 185.77 243.446 184.511C243.18 184.421 243 184.171 243 183.889C243 183.608 243.18 183.357 243.446 183.267C247.177 182.008 248.119 181.066 249.378 177.335C249.468 177.068 249.718 176.889 250 176.889C250.282 176.889 250.531 177.068 250.622 177.335C251.881 181.066 252.824 182.008 256.554 183.267C256.82 183.357 257 183.608 257 183.889C257 184.171 256.82 184.421 256.554 184.511C252.823 185.77 251.881 186.712 250.622 190.443C250.531 190.709 250.281 190.889 250 190.889Z" fill="url(#paint3_linear_1402_397)"/>
<path d="M212.961 47.8108C212.561 47.8108 212.204 47.5553 212.076 47.176C210.284 41.8674 208.943 40.5264 203.635 38.735C203.256 38.6065 203 38.2506 203 37.8498C203 37.4494 203.256 37.0932 203.635 36.9651C208.943 35.1737 210.284 33.8323 212.076 28.524C212.204 28.1444 212.56 27.8889 212.961 27.8889C213.362 27.8889 213.717 28.1444 213.846 28.524C215.637 33.8323 216.979 35.1733 222.287 36.9651C222.666 37.0932 222.922 37.4494 222.922 37.8498C222.922 38.2506 222.666 38.6065 222.287 38.735C216.979 40.5268 215.637 41.8674 213.846 47.176C213.717 47.5553 213.361 47.8108 212.961 47.8108Z" fill="url(#paint4_linear_1402_397)"/>
<path d="M36.4053 19.9219C36.0049 19.9219 35.6482 19.6664 35.5201 19.2871C33.7287 13.9785 32.3873 12.6375 27.0791 10.8461C26.7002 10.7176 26.4443 10.3617 26.4443 9.96095C26.4443 9.56056 26.7002 9.2043 27.0791 9.07618C32.3877 7.28477 33.7287 5.94337 35.5201 0.63516C35.6482 0.255472 36.0045 0 36.4053 0C36.8061 0 37.1615 0.255472 37.2904 0.63516C39.0818 5.94337 40.4232 7.28438 45.7314 9.07618C46.1104 9.2043 46.3662 9.56056 46.3662 9.96095C46.3662 10.3617 46.1104 10.7176 45.7314 10.8461C40.4229 12.6379 39.0818 13.9785 37.2904 19.2871C37.1615 19.6664 36.8057 19.9219 36.4053 19.9219Z" fill="url(#paint5_linear_1402_397)"/>
<path opacity="0.2" d="M19 88.8889C18.7186 88.8889 18.468 88.7094 18.378 88.4428C17.1191 84.7122 16.1764 83.7698 12.4461 82.5109C12.1798 82.4206 12 82.1705 12 81.8889C12 81.6075 12.1798 81.3572 12.4461 81.2671C16.1767 80.0082 17.1191 79.0656 18.378 75.3352C18.468 75.0684 18.7183 74.8889 19 74.8889C19.2816 74.8889 19.5314 75.0684 19.622 75.3352C20.8809 79.0656 21.8236 80.0079 25.5539 81.2671C25.8202 81.3572 26 81.6075 26 81.8889C26 82.1705 25.8202 82.4206 25.5539 82.5109C21.8233 83.7701 20.8809 84.7122 19.622 88.4428C19.5314 88.7094 19.2814 88.8889 19 88.8889Z" fill="url(#paint6_linear_1402_397)"/>
<path d="M9.96094 201.811C9.56055 201.811 9.20391 201.555 9.07578 201.176C7.28438 195.867 5.94297 194.526 0.634766 192.735C0.255859 192.606 0 192.251 0 191.85C0 191.449 0.255859 191.093 0.634766 190.965C5.94336 189.174 7.28438 187.832 9.07578 182.524C9.20391 182.144 9.56016 181.889 9.96094 181.889C10.3617 181.889 10.7172 182.144 10.8461 182.524C12.6375 187.832 13.9789 189.173 19.2871 190.965C19.666 191.093 19.9219 191.449 19.9219 191.85C19.9219 192.251 19.666 192.606 19.2871 192.735C13.9785 194.527 12.6375 195.867 10.8461 201.176C10.7172 201.555 10.3613 201.811 9.96094 201.811Z" fill="url(#paint7_linear_1402_397)"/>
<path opacity="0.2" d="M28 238.889C27.7186 238.889 27.468 238.709 27.378 238.443C26.1191 234.712 25.1764 233.77 21.4461 232.511C21.1798 232.421 21 232.171 21 231.889C21 231.608 21.1798 231.357 21.4461 231.267C25.1767 230.008 26.1191 229.066 27.378 225.335C27.468 225.068 27.7183 224.889 28 224.889C28.2816 224.889 28.5314 225.068 28.622 225.335C29.8809 229.066 30.8236 230.008 34.5539 231.267C34.8202 231.357 35 231.608 35 231.889C35 232.171 34.8202 232.421 34.5539 232.511C30.8233 233.77 29.8809 234.712 28.622 238.443C28.5314 238.709 28.2814 238.889 28 238.889Z" fill="url(#paint8_linear_1402_397)"/>
<path d="M49.6094 130.408C49.1066 130.408 48.6598 130.087 48.4992 129.611C46.2508 122.949 44.568 121.267 37.9066 119.019C37.4301 118.858 37.1094 118.411 37.1094 117.908C37.1094 117.405 37.4301 116.958 37.9063 116.798C44.5676 114.55 46.2504 112.867 48.4988 106.205C48.6598 105.729 49.1063 105.408 49.609 105.408C50.1117 105.408 50.5586 105.729 50.7191 106.205C52.9676 112.867 54.6504 114.55 61.3117 116.798C61.7879 116.959 62.109 117.405 62.109 117.908C62.109 118.411 61.7883 118.858 61.3117 119.019C54.6504 121.267 52.9676 122.949 50.7191 129.611C50.559 130.087 50.1121 130.408 49.6094 130.408Z" fill="#6F6F6F"/>
<path d="M155.72 117.311C155.319 117.311 154.963 117.055 154.834 116.676C153.043 111.367 151.702 110.026 146.393 108.235C146.015 108.106 145.759 107.751 145.759 107.35C145.759 106.949 146.015 106.593 146.393 106.465C151.702 104.674 153.043 103.332 154.834 98.024C154.963 97.6444 155.319 97.3889 155.72 97.3889C156.12 97.3889 156.476 97.6444 156.605 98.024C158.396 103.332 159.738 104.673 165.046 106.465C165.425 106.593 165.681 106.949 165.681 107.35C165.681 107.751 165.425 108.106 165.046 108.235C159.737 110.027 158.396 111.367 156.605 116.676C156.476 117.055 156.12 117.311 155.72 117.311Z" fill="#6F6F6F"/>
<path d="M76.375 29.75C75.998 29.75 75.6629 29.5094 75.5422 29.1523C73.8559 24.1563 72.5937 22.8941 67.5977 21.2078C67.2406 21.0871 67 20.752 67 20.375C67 19.998 67.2406 19.6629 67.5977 19.5422C72.5937 17.8563 73.8559 16.5937 75.5422 11.5977C75.6629 11.2406 75.998 11 76.375 11C76.752 11 77.0871 11.2406 77.2078 11.5977C78.8941 16.5937 80.1563 17.8559 85.1523 19.5422C85.5094 19.6629 85.75 19.998 85.75 20.375C85.75 20.752 85.5094 21.0871 85.1523 21.2078C80.1563 22.8941 78.8941 24.1563 77.2078 29.1523C77.0871 29.5094 76.752 29.75 76.375 29.75Z" fill="white"/>
</g>
<defs>
<linearGradient id="paint0_linear_1402_397" x1="222.444" y1="212" x2="238.556" y2="222.299" gradientUnits="userSpaceOnUse">
<stop stop-color="#57B6E5"/>
<stop offset="1" stop-color="#00B37E"/>
</linearGradient>
<linearGradient id="paint1_linear_1402_397" x1="233" y1="67.8889" x2="244.323" y2="75.1263" gradientUnits="userSpaceOnUse">
<stop stop-color="#57B6E5"/>
<stop offset="1" stop-color="#00B37E"/>
</linearGradient>
<linearGradient id="paint2_linear_1402_397" x1="83.4443" y1="7" x2="94.767" y2="14.2375" gradientUnits="userSpaceOnUse">
<stop stop-color="#57B6E5"/>
<stop offset="1" stop-color="#00B37E"/>
</linearGradient>
<linearGradient id="paint3_linear_1402_397" x1="243" y1="176.889" x2="254.323" y2="184.126" gradientUnits="userSpaceOnUse">
<stop stop-color="#57B6E5"/>
<stop offset="1" stop-color="#00B37E"/>
</linearGradient>
<linearGradient id="paint4_linear_1402_397" x1="203" y1="27.8889" x2="219.112" y2="38.1877" gradientUnits="userSpaceOnUse">
<stop stop-color="#57B6E5"/>
<stop offset="1" stop-color="#00B37E"/>
</linearGradient>
<linearGradient id="paint5_linear_1402_397" x1="26.4443" y1="0" x2="42.5564" y2="10.2988" gradientUnits="userSpaceOnUse">
<stop stop-color="#57B6E5"/>
<stop offset="1" stop-color="#00B37E"/>
</linearGradient>
<linearGradient id="paint6_linear_1402_397" x1="12" y1="74.8889" x2="23.3226" y2="82.1263" gradientUnits="userSpaceOnUse">
<stop stop-color="#57B6E5"/>
<stop offset="1" stop-color="#00B37E"/>
</linearGradient>
<linearGradient id="paint7_linear_1402_397" x1="0" y1="181.889" x2="16.112" y2="192.188" gradientUnits="userSpaceOnUse">
<stop stop-color="#57B6E5"/>
<stop offset="1" stop-color="#00B37E"/>
</linearGradient>
<linearGradient id="paint8_linear_1402_397" x1="21" y1="224.889" x2="32.3226" y2="232.126" gradientUnits="userSpaceOnUse">
<stop stop-color="#57B6E5"/>
<stop offset="1" stop-color="#00B37E"/>
</linearGradient>
</defs>
</svg>
